<svg width="859" height="859" viewBox="0 0 859 859" fill="none" xmlns="http://www.w3.org/2000/svg">
<path d="M664.142 172.43C602.554 120.133 519.62 79.5673 417.584 84.8981C228.239 94.7902 84.3951 258.218 94.7657 447.537C98.5266 516.194 118.093 564.293 149.011 615.045L99.0898 750.125L267.106 719.389C267.106 719.389 388.206 772.271 453.672 768.646C642.984 758.162 787.123 597.23 776.489 407.925C771.01 310.382 736.842 238.011 664.142 172.43Z" fill="#2ECC71"/>
<path d="M577.003 500.68L598.568 510.483C602.489 512.442 604.451 514.404 604.451 514.404V528.129L604.443 528.17C602.484 537.957 600.525 547.744 596.609 555.574C594.648 559.498 590.727 563.419 586.806 567.339C582.885 571.26 578.964 573.219 575.044 577.14L571.12 581.064C567.199 584.984 563.278 584.984 557.399 588.905C549.554 592.826 537.792 596.747 527.988 596.747H508.384C502.502 594.785 494.66 594.785 488.777 592.826C435.842 579.102 388.79 553.615 347.617 518.322C343.696 512.442 337.814 508.522 331.934 502.639L324.092 494.797C292.72 465.39 269.195 432.059 251.55 394.81L249.588 388.927C243.706 375.203 239.785 359.517 239.785 343.834C239.785 322.268 247.627 300.702 261.351 283.057C265.272 279.133 267.233 275.215 271.154 271.292C275.075 269.333 278.996 265.412 282.917 263.45L284.878 261.491C288.802 261.491 292.72 259.529 296.644 259.529H318.21C324.092 261.491 328.01 263.45 331.934 269.333C337.814 281.095 361.341 334.03 363.3 343.834C365.262 349.716 363.3 357.558 359.379 363.441C355.459 367.361 353.5 373.241 349.576 377.165C343.696 383.045 335.855 392.848 335.855 392.848C333.893 394.81 333.893 398.731 333.893 402.651C335.855 406.572 335.855 408.531 337.814 410.493L339.775 414.414C349.576 432.059 363.3 447.745 377.024 461.469C380.945 465.39 386.828 469.311 390.749 473.232C406.435 488.915 426.039 500.68 447.605 510.483L457.408 514.404C459.37 516.363 463.291 518.325 465.25 518.325H467.212C471.132 518.325 475.053 516.363 477.015 512.442C504.463 481.073 506.422 479.114 506.422 479.114C510.343 477.152 514.264 475.191 520.147 475.191C522.108 475.191 524.067 477.152 526.029 477.152C545.636 486.956 577.003 500.68 577.003 500.68Z" fill="white" stroke="black" stroke-width="23"/>
<path d="M711.717 628.234C756.403 566.784 780.914 490.029 776.302 407.936C770.826 310.445 736.676 238.113 664.016 172.567C602.461 120.298 519.571 79.7546 417.59 85.0825C228.348 94.9693 84.581 258.309 94.946 447.526C98.7049 516.147 118.261 564.22 149.162 614.944L99.2678 749.951L267.193 719.232C267.193 719.232 388.229 772.085 453.659 768.462C514.203 765.109 570.124 746.36 617.833 716.213" stroke="black" stroke-width="25" stroke-linecap="round" stroke-linejoin="round"/>
<circle cx="667.434" cy="680.827" r="18.7681" fill="black"/>
<path d="M245.538 56.1463C107.91 124.028 13.2312 265.752 13.2312 429.589C13.2312 509.38 35.6876 583.926 74.625 647.252L21.1068 823.215L212.583 784.875C275.722 823.485 349.952 845.737 429.379 845.737C659.212 845.737 845.528 659.421 845.528 429.589C845.528 199.756 659.212 13.4404 429.379 13.4404C416.209 13.4404 403.181 14.0523 390.323 15.2491" stroke="black" stroke-width="25" stroke-miterlimit="2.3662" stroke-linecap="round" stroke-linejoin="round"/>
<circle cx="311.133" cy="28.7416" r="20.2445" fill="black"/>
</svg>
